<svg width="81" height="22" viewBox="0 0 81 22" fill="none" xmlns="http://www.w3.org/2000/svg">
<path d="M0.63 18L2.898 13.968C3.198 13.44 3.528 13.056 3.888 12.816C4.26 12.576 4.692 12.456 5.184 12.456H5.724L5.652 12.708C4.248 12.708 3.156 12.384 2.376 11.736C1.608 11.088 1.224 10.182 1.224 9.018C1.224 7.83 1.602 6.918 2.358 6.282C3.126 5.634 4.212 5.31 5.616 5.31H11.034V18H9.18V12.762H7.164C6.612 12.762 6.168 12.846 5.832 13.014C5.496 13.17 5.196 13.482 4.932 13.95L2.664 18H0.63ZM5.922 11.358H9.18V6.786H5.922C4.002 6.786 3.042 7.548 3.042 9.072C3.042 10.596 4.002 11.358 5.922 11.358ZM17.2312 18.162C16.4392 18.162 15.6952 18.066 14.9992 17.874C14.3032 17.67 13.7332 17.382 13.2892 17.01L13.8472 15.786C14.2912 16.134 14.8012 16.398 15.3772 16.578C15.9532 16.746 16.5712 16.83 17.2312 16.83C18.0592 16.83 18.6592 16.71 19.0312 16.47C19.4152 16.218 19.6072 15.864 19.6072 15.408C19.6072 14.964 19.4512 14.628 19.1392 14.4C18.8272 14.172 18.3712 14.058 17.7712 14.058H15.5392V12.762H17.5912C18.1312 12.762 18.5512 12.648 18.8512 12.42C19.1512 12.192 19.3012 11.874 19.3012 11.466C19.3012 11.034 19.1272 10.698 18.7792 10.458C18.4312 10.218 17.8912 10.098 17.1592 10.098C16.5352 10.098 15.9652 10.176 15.4492 10.332C14.9332 10.488 14.4412 10.722 13.9732 11.034L13.4332 9.864C13.9252 9.492 14.5072 9.216 15.1792 9.036C15.8512 8.856 16.5772 8.766 17.3572 8.766C18.5332 8.766 19.4272 8.988 20.0392 9.432C20.6512 9.864 20.9572 10.488 20.9572 11.304C20.9572 11.868 20.7652 12.348 20.3812 12.744C20.0092 13.14 19.5052 13.38 18.8692 13.464V13.23C19.6012 13.266 20.1832 13.488 20.6152 13.896C21.0592 14.292 21.2812 14.82 21.2812 15.48C21.2812 16.296 20.9332 16.95 20.2372 17.442C19.5532 17.922 18.5512 18.162 17.2312 18.162ZM23.5776 18V8.928H25.3776V12.096H27.9516C29.1396 12.096 30.0336 12.348 30.6336 12.852C31.2336 13.344 31.5336 14.064 31.5336 15.012C31.5336 15.624 31.3956 16.158 31.1196 16.614C30.8436 17.058 30.4356 17.4 29.8956 17.64C29.3676 17.88 28.7196 18 27.9516 18H23.5776ZM25.3776 16.758H27.7536C28.4376 16.758 28.9536 16.62 29.3016 16.344C29.6616 16.056 29.8416 15.618 29.8416 15.03C29.8416 14.442 29.6616 14.016 29.3016 13.752C28.9536 13.476 28.4376 13.338 27.7536 13.338H25.3776V16.758ZM32.8116 18V8.928H34.6116V18H32.8116ZM37.5037 18V8.928H39.3037V12.636H40.8697L43.6957 8.928H45.6757L42.2917 13.392L41.8417 12.816C42.1897 12.852 42.4897 12.942 42.7417 13.086C42.9937 13.218 43.2397 13.416 43.4797 13.68C43.7197 13.944 43.9657 14.292 44.2177 14.724L46.1077 18H44.1637L42.5437 15.228C42.3637 14.916 42.1897 14.676 42.0217 14.508C41.8537 14.328 41.6617 14.208 41.4457 14.148C41.2297 14.076 40.9657 14.04 40.6537 14.04H39.3037V18H37.5037Z" fill="white"/>
<path d="M65 7L72.5 14.5" stroke="white" stroke-width="2" stroke-linecap="round"/>
<path d="M80 7L72.5 14.5" stroke="white" stroke-width="2" stroke-linecap="round"/>
</svg>
